<svg xmlns="http://www.w3.org/2000/svg" xmlns:xlink="http://www.w3.org/1999/xlink" viewBox="0 0 86.54 86.54"><defs><style>.cls-1{fill:url(#linear-gradient);}.cls-2{fill:url(#linear-gradient-2);}.cls-3{fill:#fff;}.cls-4{fill:#414042;}.cls-5{fill:#f979fd;}.cls-6{fill:url(#linear-gradient-3);}.cls-7{fill:url(#linear-gradient-4);}.cls-8{fill:#939598;}.cls-9{fill:#8c6cfd;}.cls-10{fill:#a7a9ac;}</style><linearGradient id="linear-gradient" x1="3.17" y1="43.27" x2="83.37" y2="43.27" gradientUnits="userSpaceOnUse"><stop offset="0" stop-color="#ee5a61"/><stop offset="1" stop-color="#6f2b8b"/></linearGradient><linearGradient id="linear-gradient-2" y1="43.27" x2="86.54" y2="43.27" gradientUnits="userSpaceOnUse"><stop offset="0" stop-color="#d9dbdb"/><stop offset="0.26" stop-color="#fff"/><stop offset="0.45" stop-color="#efefef"/><stop offset="0.61" stop-color="#d7d9d9"/><stop offset="0.78" stop-color="#bababa"/><stop offset="0.89" stop-color="#d9dbdb"/><stop offset="1" stop-color="#b5b3b4"/></linearGradient><linearGradient id="linear-gradient-3" x1="29.51" y1="47.74" x2="29.51" y2="65.01" gradientUnits="userSpaceOnUse"><stop offset="0" stop-color="#fff"/><stop offset="1" stop-color="#a7a9ac"/></linearGradient><linearGradient id="linear-gradient-4" x1="56.47" y1="47.74" x2="56.47" y2="65.01" xlink:href="#linear-gradient-3"/></defs><g id="Layer_2" data-name="Layer 2"><g id="_1" data-name="1"><circle class="cls-1" cx="43.27" cy="43.27" r="40.1"/><path class="cls-2" d="M43.27,86.54A43.27,43.27,0,1,1,86.54,43.27,43.32,43.32,0,0,1,43.27,86.54Zm0-80.21A36.94,36.94,0,1,0,80.21,43.27,37,37,0,0,0,43.27,6.33Z"/><path class="cls-3" d="M46.75,48.19V45.76a13.29,13.29,0,0,0,5.07-7.23c.08.11.16.19.26.19.45,0,.93-1.2,1.06-2.77S53,33.07,52.55,33a.32.32,0,0,0-.24.1V27.93A9,9,0,0,0,43.38,19H41.91A9,9,0,0,0,33,27.93v5.22a.37.37,0,0,0-.26-.11c-.45,0-.71,1.34-.57,2.91s.63,2.81,1.08,2.77a.35.35,0,0,0,.24-.17,13.27,13.27,0,0,0,5.07,7.21v2.5l4.16,3.85Z"/><path class="cls-4" d="M33,35.3s-5.74-10.37,3.72-17c7.18-5.07,13.92,4.42,13.92,4.42s4.07-.1,4.58,5.15C55.92,35,52,36.66,52,36.66s.82-8.47-2.29-10.21c0,0-4.32,4.89-12.8,4C36.87,30.42,34.28,30.88,33,35.3Z"/><path class="cls-5" d="M37.71,65.47H21.3q0-.52,0-1A16.48,16.48,0,0,1,24,56a16.84,16.84,0,0,1,9.61-6.7l-2,5.78,4.94,1L33.1,57.25Z"/><path class="cls-6" d="M37.71,65.47H21.3q0-.52,0-1A16.48,16.48,0,0,1,24,56a16.84,16.84,0,0,1,9.61-6.7l-2,5.78,4.94,1L33.1,57.25Z"/><path class="cls-5" d="M47.7,65.47l4.61-8.22-3.45-1.18,4.93-1-2.08-6.18c5.39,1.26,8.94,3.8,11,7.11a17,17,0,0,1,2.48,8.45c0,.35,0,.7,0,1Z"/><path class="cls-7" d="M47.7,65.47l4.61-8.22-3.45-1.18,4.93-1-2.08-6.18c5.39,1.26,8.94,3.8,11,7.11a17,17,0,0,1,2.48,8.45c0,.35,0,.7,0,1Z"/><polygon class="cls-3" points="40.48 53.73 37.84 55.54 37.74 54.91 39.29 65.47 39.46 65.47 41.69 55.05 40.48 53.73"/><polygon class="cls-3" points="47.56 55.54 44.92 53.73 43.72 55.05 45.95 65.47 46.11 65.47 47.66 54.91 47.56 55.54"/><path class="cls-8" d="M47.66,54.91,46.11,65.47H47.7l4.61-8.22-3.46-1.18,4.95-1-2.1-6.18c-.94-.21-2-.4-3.07-.54Z"/><polygon class="cls-4" points="43.72 55.05 44.92 53.73 42.76 52.24 42.7 52.2 42.65 52.24 40.48 53.73 41.69 55.05 39.46 65.47 42.65 65.47 42.76 65.47 45.95 65.47 43.72 55.05"/><polygon class="cls-9" points="42.7 52.2 42.7 52.2 42.7 52.2 42.7 52.2 42.7 52.2"/><path class="cls-8" d="M37.74,54.91l-.94-6.4h-.06a29.57,29.57,0,0,0-3.17.74l-2,5.78,4.94,1L33.1,57.25l4.61,8.22h1.58Z"/><path class="cls-10" d="M46.82,48.13h-.07l-3.47,3.42-.15.14-.43.42-.44-.43-.13-.13-3.59-3.29c-.6.07-1.18.15-1.74.25l.94,6.4.1.63,2.64-1.81,1.73-1.19.44-.3h0l.05,0h0l.06,0h0l.47.33,1.69,1.16,2.65,1.81.09-.63,1-6.59C48.05,48.24,47.44,48.18,46.82,48.13Z"/></g></g></svg>