<svg xmlns="http://www.w3.org/2000/svg" xmlns:xlink="http://www.w3.org/1999/xlink" viewBox="0 0 58.7 58.7"><defs><style>.cls-1{fill:url(#linear-gradient);}.cls-2{fill:url(#linear-gradient-2);}.cls-3{fill:#fff;}.cls-4{fill:#414042;}.cls-5{fill:#f979fd;}.cls-6{fill:url(#linear-gradient-3);}.cls-7{fill:url(#linear-gradient-4);}.cls-8{fill:#939598;}.cls-9{fill:#8c6cfd;}.cls-10{fill:#a7a9ac;}</style><linearGradient id="linear-gradient" x1="2" y1="29.35" x2="56.7" y2="29.35" gradientTransform="translate(51.17 -5.96) rotate(76.72)" gradientUnits="userSpaceOnUse"><stop offset="0" stop-color="#029faf"/><stop offset="1" stop-color="#bfab27"/></linearGradient><linearGradient id="linear-gradient-2" y1="29.35" x2="58.7" y2="29.35" gradientUnits="userSpaceOnUse"><stop offset="0" stop-color="#d9dbdb"/><stop offset="0.26" stop-color="#fff"/><stop offset="0.45" stop-color="#efefef"/><stop offset="0.61" stop-color="#d7d9d9"/><stop offset="0.78" stop-color="#bababa"/><stop offset="0.89" stop-color="#d9dbdb"/><stop offset="1" stop-color="#b5b3b4"/></linearGradient><linearGradient id="linear-gradient-3" x1="19.96" y1="32.4" x2="19.96" y2="44.18" gradientUnits="userSpaceOnUse"><stop offset="0" stop-color="#fff"/><stop offset="1" stop-color="#a7a9ac"/></linearGradient><linearGradient id="linear-gradient-4" x1="38.35" y1="32.4" x2="38.35" y2="44.18" xlink:href="#linear-gradient-3"/></defs><g id="Layer_2" data-name="Layer 2"><g id="_3" data-name="3"><circle class="cls-1" cx="29.35" cy="29.35" r="27.35" transform="translate(-5.96 51.17) rotate(-76.72)"/><path class="cls-2" d="M29.35,58.7A29.35,29.35,0,1,1,58.7,29.35,29.38,29.38,0,0,1,29.35,58.7Zm0-54.7A25.35,25.35,0,1,0,54.7,29.35,25.38,25.38,0,0,0,29.35,4Z"/><path class="cls-3" d="M31.73,32.71V31.05a9.06,9.06,0,0,0,3.45-4.93.23.23,0,0,0,.18.13c.31,0,.63-.82.72-1.89s-.09-2-.4-2a.26.26,0,0,0-.16.07V18.89a6.11,6.11,0,0,0-6.09-6.09h-1a6.11,6.11,0,0,0-6.09,6.09v3.56a.25.25,0,0,0-.17-.08c-.31,0-.49.92-.39,2s.43,1.92.74,1.89a.25.25,0,0,0,.16-.12,9,9,0,0,0,3.45,4.92v1.71L29,35.38Z"/><path class="cls-4" d="M22.33,23.91s-3.91-7.07,2.54-11.61c4.9-3.45,9.5,3,9.5,3s2.77-.06,3.12,3.52c.49,4.9-2.21,6-2.21,6s.56-5.77-1.56-7c0,0-2.95,3.33-8.73,2.71C25,20.59,23.22,20.9,22.33,23.91Z"/><path class="cls-5" d="M25.56,44.49H14.37c0-.24,0-.48,0-.71A11.18,11.18,0,0,1,16.17,38a11.47,11.47,0,0,1,6.56-4.57L21.4,37.38l3.37.7-2.36.81Z"/><path class="cls-6" d="M25.56,44.49H14.37c0-.24,0-.48,0-.71A11.18,11.18,0,0,1,16.17,38a11.47,11.47,0,0,1,6.56-4.57L21.4,37.38l3.37.7-2.36.81Z"/><path class="cls-5" d="M32.37,44.49l3.15-5.6-2.36-.81,3.37-.7-1.42-4.21c3.68.85,6.09,2.58,7.52,4.84a11.62,11.62,0,0,1,1.69,5.77c0,.23,0,.47,0,.71Z"/><path class="cls-7" d="M32.37,44.49l3.15-5.6-2.36-.81,3.37-.7-1.42-4.21c3.68.85,6.09,2.58,7.52,4.84a11.62,11.62,0,0,1,1.69,5.77c0,.23,0,.47,0,.71Z"/><polygon class="cls-3" points="27.45 36.48 25.65 37.72 25.58 37.29 26.64 44.49 26.75 44.49 28.27 37.38 27.45 36.48"/><polygon class="cls-3" points="32.28 37.72 30.48 36.48 29.66 37.38 31.18 44.49 31.29 44.49 32.35 37.29 32.28 37.72"/><path class="cls-8" d="M32.35,37.29l-1.06,7.2h1.08l3.15-5.61-2.36-.8,3.37-.7L35.1,33.17c-.64-.15-1.37-.28-2.09-.38Z"/><polygon class="cls-4" points="29.66 37.38 30.48 36.48 29 35.47 28.96 35.44 28.93 35.47 27.45 36.48 28.27 37.38 26.75 44.49 28.93 44.49 29 44.49 31.18 44.49 29.66 37.38"/><polygon class="cls-9" points="28.96 35.44 28.96 35.44 28.96 35.44 28.97 35.44 28.96 35.44"/><path class="cls-8" d="M25.58,37.29l-.64-4.36h-.05a21.39,21.39,0,0,0-2.16.51L21.4,37.38l3.37.7-2.36.8,3.15,5.61h1.08Z"/><path class="cls-10" d="M31.77,32.67h0L29.36,35l-.1.09-.29.29-.31-.29L28.57,35l-2.45-2.24c-.4,0-.8.1-1.18.17l.64,4.36.07.43,1.8-1.24,1.18-.81.3-.2h0l0,0h0l0,0h0l.33.22,1.15.79,1.8,1.24.07-.43.66-4.5C32.61,32.74,32.2,32.7,31.77,32.67Z"/></g></g></svg>